<?xml version="1.0" encoding="UTF-8" standalone="no"?><!DOCTYPE svg PUBLIC "-//W3C//DTD SVG 1.1//EN" "http://www.w3.org/Graphics/SVG/1.1/DTD/svg11.dtd"><svg width="100%" height="100%" viewBox="0 0 1200 340" version="1.1" xmlns="http://www.w3.org/2000/svg" xmlns:xlink="http://www.w3.org/1999/xlink" xml:space="preserve" xmlns:serif="http://www.serif.com/" style="fill-rule:evenodd;clip-rule:evenodd;stroke-linejoin:round;stroke-miterlimit:2;"><text x="316.56px" y="229.155px" style="font-family:'GillSansMT', 'Gill Sans MT', sans-serif;font-size:170px;fill:#fff;">AD<tspan x="548.069px 661.457px " y="229.155px 229.155px ">AM</tspan></text><text x="793.709px" y="227.661px" style="font-family:'GillSansMT-Bold', 'Gill Sans MT', sans-serif;font-weight:700;font-size:170px;fill:#f87e9e;">RMS</text><path d="M130.371,52.685c3.315,-9.021 13.445,-16.127 25.149,-16.127c11.704,-0 21.834,7.106 25.149,16.127c6.688,-6.889 18.825,-9.249 29.516,-4.476c10.692,4.773 17.064,15.397 16.434,24.99c8.903,-3.566 20.948,-0.772 28.78,7.949c7.831,8.721 9.343,21.025 4.875,29.532c9.581,0.374 19.451,7.838 23.068,19c3.617,11.161 0.007,23.017 -7.525,28.967c8.601,4.249 14.59,15.094 13.367,26.765c-1.224,11.671 -9.331,21.031 -18.624,23.394c6.133,7.389 7.206,19.739 1.354,29.903c-5.852,10.163 -17.055,15.407 -26.503,13.775c2.606,9.252 -1.424,20.972 -10.893,27.87c-9.468,6.898 -21.829,7.119 -29.799,1.775c-1.373,9.515 -9.808,18.578 -21.256,21.018c-11.448,2.44 -22.83,-2.399 -27.943,-10.532c-5.113,8.133 -16.495,12.972 -27.943,10.532c-11.448,-2.44 -19.883,-11.503 -21.256,-21.018c-7.97,5.344 -20.331,5.123 -29.799,-1.775c-9.469,-6.898 -13.499,-18.618 -10.893,-27.87c-9.448,1.632 -20.651,-3.612 -26.503,-13.775c-5.852,-10.164 -4.779,-22.514 1.354,-29.903c-9.293,-2.363 -17.4,-11.723 -18.624,-23.394c-1.223,-11.671 4.766,-22.516 13.367,-26.765c-7.532,-5.95 -11.142,-17.806 -7.525,-28.967c3.617,-11.162 13.487,-18.626 23.068,-19c-4.468,-8.507 -2.956,-20.811 4.875,-29.532c7.832,-8.721 19.877,-11.515 28.78,-7.949c-0.63,-9.593 5.742,-20.217 16.434,-24.99c10.691,-4.773 22.828,-2.413 29.516,4.476Z" style="fill:none;"/><clipPath id="_clip1"><path d="M130.371,52.685c3.315,-9.021 13.445,-16.127 25.149,-16.127c11.704,-0 21.834,7.106 25.149,16.127c6.688,-6.889 18.825,-9.249 29.516,-4.476c10.692,4.773 17.064,15.397 16.434,24.99c8.903,-3.566 20.948,-0.772 28.78,7.949c7.831,8.721 9.343,21.025 4.875,29.532c9.581,0.374 19.451,7.838 23.068,19c3.617,11.161 0.007,23.017 -7.525,28.967c8.601,4.249 14.59,15.094 13.367,26.765c-1.224,11.671 -9.331,21.031 -18.624,23.394c6.133,7.389 7.206,19.739 1.354,29.903c-5.852,10.163 -17.055,15.407 -26.503,13.775c2.606,9.252 -1.424,20.972 -10.893,27.87c-9.468,6.898 -21.829,7.119 -29.799,1.775c-1.373,9.515 -9.808,18.578 -21.256,21.018c-11.448,2.44 -22.83,-2.399 -27.943,-10.532c-5.113,8.133 -16.495,12.972 -27.943,10.532c-11.448,-2.44 -19.883,-11.503 -21.256,-21.018c-7.97,5.344 -20.331,5.123 -29.799,-1.775c-9.469,-6.898 -13.499,-18.618 -10.893,-27.87c-9.448,1.632 -20.651,-3.612 -26.503,-13.775c-5.852,-10.164 -4.779,-22.514 1.354,-29.903c-9.293,-2.363 -17.4,-11.723 -18.624,-23.394c-1.223,-11.671 4.766,-22.516 13.367,-26.765c-7.532,-5.95 -11.142,-17.806 -7.525,-28.967c3.617,-11.162 13.487,-18.626 23.068,-19c-4.468,-8.507 -2.956,-20.811 4.875,-29.532c7.832,-8.721 19.877,-11.515 28.78,-7.949c-0.63,-9.593 5.742,-20.217 16.434,-24.99c10.691,-4.773 22.828,-2.413 29.516,4.476Z"/></clipPath><g clip-path="url(#_clip1)"><rect x="23.455" y="78.426" width="21.772" height="15.331" style="fill:#fff;"/><rect x="24.906" y="47.5" width="21.772" height="15.331" style="fill:#fff;"/><rect x="29.369" y="100.217" width="21.772" height="15.331" style="fill:#fff;"/><rect x="78.281" y="114.079" width="21.772" height="15.331" style="fill:#fff;"/><rect x="34.907" y="123.797" width="21.772" height="15.331" style="fill:#fff;"/><rect x="242.646" y="139.128" width="21.772" height="15.331" style="fill:#fff;"/><rect x="208.237" y="135.06" width="21.772" height="15.331" style="fill:#fff;"/><rect x="261.443" y="159.563" width="21.772" height="15.331" style="fill:#fff;"/><rect x="118.888" y="113.024" width="21.772" height="15.331" style="fill:#fff;"/><rect x="165.351" y="170.958" width="21.772" height="15.331" style="fill:#fff;"/><rect x="85.081" y="156.399" width="21.772" height="15.331" style="fill:#fff;"/><rect x="95.496" y="81.703" width="21.772" height="15.331" style="fill:#fff;"/><rect x="64.853" y="90.178" width="21.772" height="15.331" style="fill:#fff;"/><rect x="84.61" y="29.834" width="21.772" height="15.331" style="fill:#fff;"/><path d="M65.498,45.975l0,-16.009l-11.273,-0l0,16.009l11.273,-0Z" style="fill:#fff;"/><rect x="155.784" y="42.961" width="21.772" height="15.331" style="fill:#fff;"/><rect x="151.358" y="79.763" width="21.772" height="15.331" style="fill:#fff;"/><rect x="55.172" y="53.979" width="12.92" height="12.393" style="fill:#fff;"/><rect x="87.943" y="50.438" width="12.92" height="12.393" style="fill:#fff;"/><rect x="71.821" y="69.31" width="12.92" height="12.393" style="fill:#fff;"/><rect x="124.218" y="84.886" width="12.92" height="12.393" style="fill:#fff;"/><rect x="114.801" y="38.968" width="12.92" height="12.393" style="fill:#fff;"/><rect x="137.138" y="38.968" width="12.92" height="12.393" style="fill:#fff;"/><rect x="156.047" y="26.576" width="12.92" height="12.393" style="fill:#fff;"/><rect x="180.211" y="95.094" width="12.92" height="12.393" style="fill:#fff;"/><rect x="240.612" y="165.272" width="12.92" height="12.393" style="fill:#fff;"/><rect x="156.047" y="62.059" width="12.92" height="12.393" style="fill:#fff;"/><rect x="156.047" y="62.059" width="12.92" height="12.393" style="fill:#fff;"/><rect x="151.358" y="79.763" width="21.772" height="15.331" style="fill:#fff;"/><rect x="151.358" y="99.821" width="21.772" height="15.331" style="fill:#fff;"/><rect x="115.893" y="62.831" width="21.772" height="15.331" style="fill:#fff;"/><rect x="184.43" y="70.76" width="21.772" height="15.331" style="fill:#fff;"/><rect x="248.881" y="39.835" width="21.772" height="15.331" style="fill:#fff;"/><rect x="204.846" y="52.925" width="21.772" height="15.331" style="fill:#fff;"/><rect x="211.815" y="28.742" width="21.772" height="15.331" style="fill:#fff;"/><rect x="233.587" y="68.255" width="21.772" height="15.331" style="fill:#fff;"/><rect x="235.621" y="204.803" width="21.772" height="15.331" style="fill:#fff;"/><rect x="210.063" y="184.198" width="21.772" height="15.331" style="fill:#fff;"/><rect x="60.54" y="175.61" width="21.772" height="15.331" style="fill:#fff;"/><rect x="166.764" y="190.941" width="21.772" height="15.331" style="fill:#fff;"/><rect x="184.016" y="44.43" width="12.92" height="12.393" style="fill:#fff;"/><rect x="209.272" y="95.094" width="12.92" height="12.393" style="fill:#fff;"/><rect x="195.316" y="115.359" width="12.92" height="12.393" style="fill:#fff;"/><rect x="235.96" y="95.471" width="12.92" height="12.393" style="fill:#fff;"/><rect x="222.701" y="115.152" width="12.92" height="12.393" style="fill:#fff;"/><rect x="244.473" y="121.349" width="12.92" height="12.393" style="fill:#fff;"/><rect x="244.473" y="121.349" width="12.92" height="12.393" style="fill:#fff;"/><rect x="259.785" y="95.094" width="12.92" height="12.393" style="fill:#fff;"/><rect x="264.211" y="73.699" width="12.92" height="12.393" style="fill:#fff;"/><rect x="101.09" y="140.748" width="12.92" height="12.393" style="fill:#fff;"/><rect x="62.819" y="283.962" width="21.772" height="15.331" style="fill:#fff;"/><rect x="127.269" y="253.037" width="21.772" height="15.331" style="fill:#fff;"/><rect x="83.235" y="266.126" width="21.772" height="15.331" style="fill:#fff;"/><rect x="90.203" y="241.943" width="21.772" height="15.331" style="fill:#fff;"/><rect x="111.976" y="281.457" width="21.772" height="15.331" style="fill:#fff;"/><rect x="62.819" y="262.359" width="12.92" height="12.393" style="fill:#fff;"/><rect x="129.774" y="144.006" width="12.92" height="12.393" style="fill:#fff;"/><rect x="72.16" y="140.748" width="12.92" height="12.393" style="fill:#fff;"/><rect x="51.556" y="156.399" width="12.92" height="12.393" style="fill:#fff;"/><rect x="116.194" y="161.013" width="12.92" height="12.393" style="fill:#fff;"/><rect x="158.872" y="128.355" width="12.92" height="12.393" style="fill:#fff;"/><rect x="143.579" y="160.806" width="12.92" height="12.393" style="fill:#fff;"/><rect x="200.684" y="159.337" width="12.92" height="12.393" style="fill:#fff;"/><rect x="158.891" y="146.944" width="12.92" height="12.393" style="fill:#fff;"/><rect x="180.663" y="140.748" width="12.92" height="12.393" style="fill:#fff;"/><rect x="142.6" y="286.9" width="12.92" height="12.393" style="fill:#fff;"/><rect x="242.439" y="186.213" width="12.92" height="12.393" style="fill:#fff;"/><rect x="262.14" y="252.133" width="12.92" height="12.393" style="fill:#fff;"/><rect x="50.219" y="76.486" width="12.92" height="12.393" style="fill:#fff;"/><rect x="192.906" y="207.741" width="12.92" height="12.393" style="fill:#fff;"/><rect x="190.231" y="177.665" width="12.92" height="12.393" style="fill:#fff;"/><rect x="58.901" y="109.351" width="12.92" height="12.393" style="fill:#fff;"/><rect x="142.694" y="189.151" width="12.92" height="12.393" style="fill:#fff;"/><rect x="123.314" y="181.486" width="12.92" height="12.393" style="fill:#fff;"/><rect x="55.944" y="201.544" width="12.92" height="12.393" style="fill:#fff;"/><rect x="33.362" y="171.469" width="12.92" height="12.393" style="fill:#fff;"/><rect x="255.887" y="273.698" width="21.772" height="15.331" style="fill:#fff;"/><rect x="262.14" y="225.012" width="21.772" height="15.331" style="fill:#fff;"/><rect x="262.14" y="191.864" width="21.772" height="15.331" style="fill:#fff;"/><rect x="57.225" y="237.404" width="21.772" height="15.331" style="fill:#fff;"/><rect x="41.046" y="299.896" width="21.772" height="15.331" style="fill:#fff;"/><rect x="25.037" y="280.855" width="21.772" height="15.331" style="fill:#fff;"/><rect x="90.203" y="241.943" width="21.772" height="15.331" style="fill:#fff;"/><rect x="94.629" y="299.896" width="12.92" height="12.393" style="fill:#fff;"/><rect x="35.924" y="254.694" width="21.772" height="15.331" style="fill:#fff;"/><rect x="75.324" y="213.937" width="21.772" height="15.331" style="fill:#fff;"/><rect x="93.895" y="186.213" width="21.772" height="15.331" style="fill:#fff;"/><rect x="29.332" y="228.856" width="21.772" height="15.331" style="fill:#fff;"/><rect x="138.061" y="209.737" width="21.772" height="15.331" style="fill:#fff;"/><rect x="242.816" y="240.342" width="12.92" height="12.393" style="fill:#fff;"/><rect x="193.282" y="261.87" width="12.92" height="12.393" style="fill:#fff;"/><rect x="190.608" y="231.794" width="12.92" height="12.393" style="fill:#fff;"/><rect x="111.825" y="212.675" width="12.92" height="12.393" style="fill:#fff;"/><rect x="124.745" y="231.794" width="12.92" height="12.393" style="fill:#fff;"/><rect x="29.332" y="205.01" width="12.92" height="12.393" style="fill:#fff;"/><rect x="30.688" y="146.794" width="12.92" height="12.393" style="fill:#fff;"/><rect x="161.547" y="226.97" width="21.772" height="15.331" style="fill:#fff;"/><rect x="210.459" y="240.832" width="21.772" height="15.331" style="fill:#fff;"/><rect x="167.084" y="250.551" width="21.772" height="15.331" style="fill:#fff;"/><rect x="217.258" y="283.152" width="21.772" height="15.331" style="fill:#fff;"/><rect x="193.81" y="299.896" width="21.772" height="15.331" style="fill:#fff;"/><rect x="233.267" y="267.501" width="12.92" height="12.393" style="fill:#fff;"/><rect x="249.22" y="299.896" width="12.92" height="12.393" style="fill:#fff;"/><rect x="183.733" y="283.152" width="12.92" height="12.393" style="fill:#fff;"/><rect x="214.49" y="220.284" width="12.92" height="12.393" style="fill:#fff;"/><rect x="165.54" y="298.222" width="12.92" height="12.393" style="fill:#fff;"/><rect x="162.865" y="273.547" width="12.92" height="12.393" style="fill:#fff;"/></g><path d="M130.371,52.685c3.315,-9.021 13.445,-16.127 25.149,-16.127c11.704,-0 21.834,7.106 25.149,16.127c6.688,-6.889 18.825,-9.249 29.516,-4.476c10.692,4.773 17.064,15.397 16.434,24.99c8.903,-3.566 20.948,-0.772 28.78,7.949c7.831,8.721 9.343,21.025 4.875,29.532c9.581,0.374 19.451,7.838 23.068,19c3.617,11.161 0.007,23.017 -7.525,28.967c8.601,4.249 14.59,15.094 13.367,26.765c-1.224,11.671 -9.331,21.031 -18.624,23.394c6.133,7.389 7.206,19.739 1.354,29.903c-5.852,10.163 -17.055,15.407 -26.503,13.775c2.606,9.252 -1.424,20.972 -10.893,27.87c-9.468,6.898 -21.829,7.119 -29.799,1.775c-1.373,9.515 -9.808,18.578 -21.256,21.018c-11.448,2.44 -22.83,-2.399 -27.943,-10.532c-5.113,8.133 -16.495,12.972 -27.943,10.532c-11.448,-2.44 -19.883,-11.503 -21.256,-21.018c-7.97,5.344 -20.331,5.123 -29.799,-1.775c-9.469,-6.898 -13.499,-18.618 -10.893,-27.87c-9.448,1.632 -20.651,-3.612 -26.503,-13.775c-5.852,-10.164 -4.779,-22.514 1.354,-29.903c-9.293,-2.363 -17.4,-11.723 -18.624,-23.394c-1.223,-11.671 4.766,-22.516 13.367,-26.765c-7.532,-5.95 -11.142,-17.806 -7.525,-28.967c3.617,-11.162 13.487,-18.626 23.068,-19c-4.468,-8.507 -2.956,-20.811 4.875,-29.532c7.832,-8.721 19.877,-11.515 28.78,-7.949c-0.63,-9.593 5.742,-20.217 16.434,-24.99c10.691,-4.773 22.828,-2.413 29.516,4.476Zm-1.126,1.093c0.376,0.387 0.924,0.554 1.452,0.442c0.528,-0.112 0.961,-0.487 1.147,-0.994c3.116,-8.479 12.676,-15.099 23.676,-15.099c11,0 20.56,6.62 23.676,15.099c0.186,0.507 0.619,0.882 1.147,0.994c0.528,0.112 1.076,-0.055 1.452,-0.442c6.285,-6.474 17.702,-8.622 27.751,-4.136c10.051,4.487 16.099,14.436 15.506,23.454c-0.035,0.538 0.208,1.056 0.645,1.373c0.436,0.317 1.004,0.387 1.505,0.187c8.368,-3.351 19.669,-0.656 27.029,7.541c7.363,8.199 8.854,19.755 4.654,27.753c-0.251,0.477 -0.239,1.049 0.031,1.515c0.269,0.466 0.759,0.762 1.297,0.783c9.005,0.352 18.236,7.424 21.636,17.915c3.4,10.494 0.076,21.659 -7.005,27.252c-0.422,0.334 -0.644,0.861 -0.588,1.396c0.057,0.535 0.384,1.004 0.866,1.243c8.085,3.994 13.651,14.222 12.501,25.194c-1.15,10.972 -8.714,19.815 -17.45,22.037c-0.522,0.132 -0.939,0.523 -1.106,1.035c-0.166,0.512 -0.059,1.074 0.285,1.488c5.767,6.948 6.703,18.562 1.202,28.117c-5.5,9.553 -15.996,14.546 -24.876,13.013c-0.531,-0.092 -1.072,0.095 -1.433,0.495c-0.361,0.401 -0.491,0.958 -0.345,1.477c2.45,8.698 -1.404,19.69 -10.306,26.175c-8.898,6.483 -20.511,6.763 -28.001,1.741c-0.448,-0.301 -1.019,-0.35 -1.512,-0.131c-0.493,0.219 -0.839,0.676 -0.916,1.21c-1.29,8.944 -9.268,17.414 -20.029,19.707c-10.759,2.293 -21.482,-2.188 -26.287,-9.832c-0.288,-0.457 -0.789,-0.734 -1.329,-0.734c-0.54,-0 -1.041,0.277 -1.329,0.734c-4.805,7.644 -15.528,12.125 -26.287,9.832c-10.761,-2.293 -18.739,-10.763 -20.029,-19.707c-0.077,-0.534 -0.423,-0.991 -0.916,-1.21c-0.493,-0.219 -1.064,-0.17 -1.512,0.131c-7.49,5.022 -19.103,4.742 -28.001,-1.741c-8.902,-6.485 -12.756,-17.477 -10.306,-26.175c0.146,-0.519 0.016,-1.076 -0.345,-1.477c-0.361,-0.4 -0.902,-0.587 -1.433,-0.495c-8.88,1.533 -19.376,-3.46 -24.876,-13.013c-5.501,-9.555 -4.565,-21.169 1.202,-28.117c0.344,-0.414 0.451,-0.976 0.285,-1.488c-0.167,-0.512 -0.584,-0.903 -1.106,-1.035c-8.736,-2.222 -16.3,-11.065 -17.45,-22.037c-1.15,-10.972 4.416,-21.2 12.501,-25.194c0.482,-0.239 0.809,-0.708 0.866,-1.243c0.056,-0.535 -0.166,-1.062 -0.588,-1.396c-7.081,-5.593 -10.405,-16.758 -7.005,-27.252c3.4,-10.491 12.631,-17.563 21.636,-17.915c0.538,-0.021 1.028,-0.317 1.297,-0.783c0.27,-0.466 0.282,-1.038 0.031,-1.515c-4.2,-7.998 -2.709,-19.554 4.654,-27.753c7.36,-8.197 18.661,-10.892 27.029,-7.541c0.501,0.2 1.069,0.13 1.505,-0.187c0.437,-0.317 0.68,-0.835 0.645,-1.373c-0.593,-9.018 5.455,-18.967 15.506,-23.454c10.049,-4.486 21.466,-2.338 27.751,4.136Z" style="fill:#fff;"/><text x="74.728px" y="232.677px" style="font-family:'GillSansMT-Bold', 'Gill Sans MT', sans-serif;font-weight:700;font-size:206.828px;fill:#f77e9d;">A</text></svg>