<?xml version="1.0" encoding="UTF-8" standalone="no"?><!DOCTYPE svg PUBLIC "-//W3C//DTD SVG 1.1//EN" "http://www.w3.org/Graphics/SVG/1.1/DTD/svg11.dtd"><svg width="100%" height="100%" viewBox="0 0 1225 1225" version="1.1" xmlns="http://www.w3.org/2000/svg" xmlns:xlink="http://www.w3.org/1999/xlink" xml:space="preserve" xmlns:serif="http://www.serif.com/" style="fill-rule:evenodd;clip-rule:evenodd;stroke-linejoin:round;stroke-miterlimit:2;"><path d="M497.379,115.354c13.813,-37.587 56.021,-67.196 104.788,-67.196c48.766,0 90.975,29.609 104.787,67.196c27.867,-28.704 78.438,-38.537 122.983,-18.65c44.55,19.888 71.1,64.154 68.475,104.125c37.096,-14.858 87.284,-3.217 119.917,33.121c32.629,36.338 38.929,87.604 20.313,123.05c39.92,1.558 81.045,32.658 96.116,79.167c15.071,46.504 0.029,95.904 -31.354,120.696c35.838,17.704 60.792,62.891 55.696,111.52c-5.1,48.629 -38.879,87.63 -77.6,97.475c25.554,30.788 30.025,82.246 5.642,124.596c-24.384,42.346 -71.063,64.196 -110.43,57.396c10.859,38.55 -5.933,87.383 -45.387,116.125c-39.45,28.742 -90.954,29.662 -124.163,7.396c-5.72,39.646 -40.866,77.408 -88.566,87.575c-47.7,10.166 -95.125,-9.996 -116.429,-43.884c-21.305,33.888 -68.73,54.05 -116.43,43.884c-47.7,-10.167 -82.845,-47.929 -88.566,-87.575c-33.209,22.266 -84.713,21.346 -124.163,-7.396c-39.454,-28.742 -56.246,-77.575 -45.387,-116.125c-39.367,6.8 -86.046,-15.05 -110.429,-57.396c-24.384,-42.35 -19.913,-93.808 5.641,-124.596c-38.721,-9.846 -72.5,-48.846 -77.6,-97.475c-5.096,-48.629 19.859,-93.816 55.696,-111.521c-31.383,-24.791 -46.425,-74.191 -31.354,-120.695c15.071,-46.509 56.196,-77.609 96.117,-79.167c-18.617,-35.446 -12.317,-86.713 20.312,-123.05c32.633,-36.338 82.821,-47.979 119.917,-33.121c-2.625,-39.971 23.925,-84.237 68.475,-104.125c44.546,-19.887 95.116,-10.054 122.983,18.65Z" style="fill:none;"/><g><clipPath id="_clip1"><path d="M497.379,115.354c13.813,-37.587 56.021,-67.196 104.788,-67.196c48.766,0 90.975,29.609 104.787,67.196c27.867,-28.704 78.438,-38.537 122.983,-18.65c44.55,19.888 71.1,64.154 68.475,104.125c37.096,-14.858 87.284,-3.217 119.917,33.121c32.629,36.338 38.929,87.604 20.313,123.05c39.92,1.558 81.045,32.658 96.116,79.167c15.071,46.504 0.029,95.904 -31.354,120.696c35.838,17.704 60.792,62.891 55.696,111.52c-5.1,48.629 -38.879,87.63 -77.6,97.475c25.554,30.788 30.025,82.246 5.642,124.596c-24.384,42.346 -71.063,64.196 -110.43,57.396c10.859,38.55 -5.933,87.383 -45.387,116.125c-39.45,28.742 -90.954,29.662 -124.163,7.396c-5.72,39.646 -40.866,77.408 -88.566,87.575c-47.7,10.166 -95.125,-9.996 -116.429,-43.884c-21.305,33.888 -68.73,54.05 -116.43,43.884c-47.7,-10.167 -82.845,-47.929 -88.566,-87.575c-33.209,22.266 -84.713,21.346 -124.163,-7.396c-39.454,-28.742 -56.246,-77.575 -45.387,-116.125c-39.367,6.8 -86.046,-15.05 -110.429,-57.396c-24.384,-42.35 -19.913,-93.808 5.641,-124.596c-38.721,-9.846 -72.5,-48.846 -77.6,-97.475c-5.096,-48.629 19.859,-93.816 55.696,-111.521c-31.383,-24.791 -46.425,-74.191 -31.354,-120.695c15.071,-46.509 56.196,-77.609 96.117,-79.167c-18.617,-35.446 -12.317,-86.713 20.312,-123.05c32.633,-36.338 82.821,-47.979 119.917,-33.121c-2.625,-39.971 23.925,-84.237 68.475,-104.125c44.546,-19.887 95.116,-10.054 122.983,18.65Z"/></clipPath><g clip-path="url(#_clip1)"><rect x="51.896" y="222.608" width="90.717" height="63.879" style="fill:#fff;"/><rect x="57.942" y="93.75" width="90.717" height="63.879" style="fill:#fff;"/><rect x="76.537" y="313.404" width="90.717" height="63.879" style="fill:#fff;"/><rect x="280.338" y="371.162" width="90.717" height="63.879" style="fill:#fff;"/><rect x="99.612" y="411.654" width="90.717" height="63.879" style="fill:#fff;"/><rect x="965.192" y="475.533" width="90.717" height="63.879" style="fill:#fff;"/><rect x="821.821" y="458.583" width="90.717" height="63.879" style="fill:#fff;"/><rect x="1043.51" y="560.679" width="90.717" height="63.879" style="fill:#fff;"/><rect x="449.533" y="366.767" width="90.717" height="63.879" style="fill:#fff;"/><rect x="643.129" y="608.158" width="90.717" height="63.879" style="fill:#fff;"/><rect x="308.671" y="547.496" width="90.717" height="63.879" style="fill:#fff;"/><rect x="352.067" y="236.263" width="90.717" height="63.879" style="fill:#fff;"/><rect x="224.387" y="271.575" width="90.717" height="63.879" style="fill:#fff;"/><rect x="306.708" y="20.142" width="90.717" height="63.879" style="fill:#fff;"/><rect x="180.104" y="20.692" width="46.971" height="66.704" style="fill:#fff;"/><rect x="603.267" y="74.837" width="90.717" height="63.879" style="fill:#fff;"/><rect x="584.825" y="228.179" width="90.717" height="63.879" style="fill:#fff;"/><rect x="184.05" y="120.746" width="53.833" height="51.637" style="fill:#fff;"/><rect x="320.596" y="105.992" width="53.833" height="51.637" style="fill:#fff;"/><rect x="253.421" y="184.625" width="53.833" height="51.638" style="fill:#fff;"/><rect x="471.742" y="249.525" width="53.833" height="51.638" style="fill:#fff;"/><rect x="432.504" y="58.2" width="53.833" height="51.637" style="fill:#fff;"/><rect x="525.575" y="58.2" width="53.833" height="51.637" style="fill:#fff;"/><rect x="604.363" y="6.567" width="53.833" height="51.637" style="fill:#fff;"/><rect x="705.046" y="292.058" width="53.833" height="51.637" style="fill:#fff;"/><rect x="956.717" y="584.467" width="53.833" height="51.638" style="fill:#fff;"/><rect x="604.363" y="154.412" width="53.833" height="51.638" style="fill:#fff;"/><rect x="604.363" y="154.412" width="53.833" height="51.638" style="fill:#fff;"/><rect x="584.825" y="228.179" width="90.717" height="63.879" style="fill:#fff;"/><rect x="584.825" y="311.754" width="90.717" height="63.879" style="fill:#fff;"/><rect x="437.054" y="157.629" width="90.717" height="63.879" style="fill:#fff;"/><rect x="722.625" y="190.667" width="90.717" height="63.879" style="fill:#fff;"/><rect x="991.171" y="61.813" width="90.717" height="63.879" style="fill:#fff;"/><rect x="807.692" y="116.354" width="90.717" height="63.879" style="fill:#fff;"/><rect x="836.729" y="15.592" width="90.717" height="63.879" style="fill:#fff;"/><rect x="927.446" y="180.229" width="90.717" height="63.879" style="fill:#fff;"/><rect x="935.921" y="749.179" width="90.717" height="63.879" style="fill:#fff;"/><rect x="829.429" y="663.325" width="90.717" height="63.879" style="fill:#fff;"/><rect x="206.417" y="627.542" width="90.717" height="63.879" style="fill:#fff;"/><rect x="649.017" y="691.421" width="90.717" height="63.879" style="fill:#fff;"/><rect x="720.9" y="80.958" width="53.833" height="51.638" style="fill:#fff;"/><rect x="826.133" y="292.058" width="53.833" height="51.637" style="fill:#fff;"/><rect x="767.983" y="376.496" width="53.833" height="51.638" style="fill:#fff;"/><rect x="937.333" y="293.629" width="53.833" height="51.638" style="fill:#fff;"/><rect x="882.088" y="375.633" width="53.833" height="51.637" style="fill:#fff;"/><rect x="972.804" y="401.454" width="53.833" height="51.638" style="fill:#fff;"/><rect x="972.804" y="401.454" width="53.833" height="51.638" style="fill:#fff;"/><rect x="1036.6" y="292.058" width="53.833" height="51.637" style="fill:#fff;"/><rect x="1055.05" y="202.913" width="53.833" height="51.637" style="fill:#fff;"/><rect x="375.375" y="482.283" width="53.833" height="51.637" style="fill:#fff;"/><rect x="215.913" y="1079.01" width="90.717" height="63.879" style="fill:#fff;"/><rect x="484.454" y="950.154" width="90.717" height="63.879" style="fill:#fff;"/><rect x="300.979" y="1004.69" width="90.717" height="63.879" style="fill:#fff;"/><rect x="330.013" y="903.929" width="90.717" height="63.879" style="fill:#fff;"/><rect x="420.733" y="1068.57" width="90.717" height="63.879" style="fill:#fff;"/><rect x="215.913" y="988.996" width="53.833" height="51.637" style="fill:#fff;"/><rect x="494.892" y="495.858" width="53.833" height="51.637" style="fill:#fff;"/><rect x="254.833" y="482.283" width="53.833" height="51.637" style="fill:#fff;"/><rect x="168.983" y="547.496" width="53.833" height="51.638" style="fill:#fff;"/><rect x="438.308" y="566.721" width="53.833" height="51.638" style="fill:#fff;"/><rect x="616.133" y="430.646" width="53.833" height="51.638" style="fill:#fff;"/><rect x="552.413" y="565.858" width="53.833" height="51.638" style="fill:#fff;"/><rect x="790.35" y="559.738" width="53.833" height="51.637" style="fill:#fff;"/><rect x="616.213" y="508.1" width="53.833" height="51.638" style="fill:#fff;"/><rect x="706.929" y="482.283" width="53.833" height="51.637" style="fill:#fff;"/><rect x="548.333" y="1091.25" width="53.833" height="51.638" style="fill:#fff;"/><rect x="964.329" y="671.721" width="53.833" height="51.638" style="fill:#fff;"/><rect x="1046.42" y="946.388" width="53.833" height="51.638" style="fill:#fff;"/><rect x="163.413" y="214.525" width="53.833" height="51.637" style="fill:#fff;"/><rect x="757.942" y="761.421" width="53.833" height="51.638" style="fill:#fff;"/><rect x="746.796" y="636.104" width="53.833" height="51.637" style="fill:#fff;"/><rect x="199.588" y="351.463" width="53.833" height="51.637" style="fill:#fff;"/><rect x="548.725" y="683.963" width="53.833" height="51.638" style="fill:#fff;"/><rect x="467.975" y="652.025" width="53.833" height="51.637" style="fill:#fff;"/><rect x="187.267" y="735.6" width="53.833" height="51.638" style="fill:#fff;"/><rect x="93.175" y="610.288" width="53.833" height="51.638" style="fill:#fff;"/><rect x="1020.36" y="1036.24" width="90.717" height="63.879" style="fill:#fff;"/><rect x="1046.42" y="833.383" width="90.717" height="63.879" style="fill:#fff;"/><rect x="1046.42" y="695.267" width="90.717" height="63.879" style="fill:#fff;"/><rect x="192.604" y="885.017" width="90.717" height="63.879" style="fill:#fff;"/><rect x="125.192" y="1145.4" width="90.717" height="63.879" style="fill:#fff;"/><rect x="58.488" y="1066.06" width="90.717" height="63.879" style="fill:#fff;"/><rect x="330.013" y="903.929" width="90.717" height="63.879" style="fill:#fff;"/><rect x="348.454" y="1145.4" width="53.833" height="51.637" style="fill:#fff;"/><rect x="103.85" y="957.058" width="90.717" height="63.879" style="fill:#fff;"/><rect x="268.017" y="787.238" width="90.717" height="63.879" style="fill:#fff;"/><rect x="345.396" y="671.721" width="90.717" height="63.879" style="fill:#fff;"/><rect x="76.383" y="849.4" width="90.717" height="63.879" style="fill:#fff;"/><rect x="529.421" y="769.738" width="90.717" height="63.879" style="fill:#fff;"/><rect x="965.9" y="897.258" width="53.833" height="51.638" style="fill:#fff;"/><rect x="759.508" y="986.958" width="53.833" height="51.638" style="fill:#fff;"/><rect x="748.367" y="861.642" width="53.833" height="51.638" style="fill:#fff;"/><rect x="420.104" y="781.979" width="53.833" height="51.637" style="fill:#fff;"/><rect x="473.938" y="861.642" width="53.833" height="51.638" style="fill:#fff;"/><rect x="76.383" y="750.042" width="53.833" height="51.638" style="fill:#fff;"/><rect x="82.033" y="507.475" width="53.833" height="51.638" style="fill:#fff;"/><rect x="627.279" y="841.542" width="90.717" height="63.879" style="fill:#fff;"/><rect x="831.079" y="899.3" width="90.717" height="63.879" style="fill:#fff;"/><rect x="650.35" y="939.796" width="90.717" height="63.879" style="fill:#fff;"/><rect x="859.408" y="1075.63" width="90.717" height="63.879" style="fill:#fff;"/><rect x="761.708" y="1145.4" width="90.717" height="63.879" style="fill:#fff;"/><rect x="926.113" y="1010.42" width="53.833" height="51.637" style="fill:#fff;"/><rect x="992.583" y="1145.4" width="53.833" height="51.637" style="fill:#fff;"/><rect x="719.721" y="1075.63" width="53.833" height="51.638" style="fill:#fff;"/><rect x="847.875" y="813.683" width="53.833" height="51.638" style="fill:#fff;"/><rect x="643.917" y="1138.42" width="53.833" height="51.638" style="fill:#fff;"/><rect x="632.771" y="1035.61" width="53.833" height="51.638" style="fill:#fff;"/></g></g><path d="M497.379,115.354c13.813,-37.587 56.021,-67.196 104.788,-67.196c48.766,0 90.975,29.609 104.787,67.196c27.867,-28.704 78.438,-38.537 122.983,-18.65c44.55,19.888 71.1,64.154 68.475,104.125c37.096,-14.858 87.284,-3.217 119.917,33.121c32.629,36.338 38.929,87.604 20.313,123.05c39.92,1.558 81.045,32.658 96.116,79.167c15.071,46.504 0.029,95.904 -31.354,120.696c35.838,17.704 60.792,62.891 55.696,111.52c-5.1,48.629 -38.879,87.63 -77.6,97.475c25.554,30.788 30.025,82.246 5.642,124.596c-24.384,42.346 -71.063,64.196 -110.43,57.396c10.859,38.55 -5.933,87.383 -45.387,116.125c-39.45,28.742 -90.954,29.662 -124.163,7.396c-5.72,39.646 -40.866,77.408 -88.566,87.575c-47.7,10.166 -95.125,-9.996 -116.429,-43.884c-21.305,33.888 -68.73,54.05 -116.43,43.884c-47.7,-10.167 -82.845,-47.929 -88.566,-87.575c-33.209,22.266 -84.713,21.346 -124.163,-7.396c-39.454,-28.742 -56.246,-77.575 -45.387,-116.125c-39.367,6.8 -86.046,-15.05 -110.429,-57.396c-24.384,-42.35 -19.913,-93.808 5.641,-124.596c-38.721,-9.846 -72.5,-48.846 -77.6,-97.475c-5.096,-48.629 19.859,-93.816 55.696,-111.521c-31.383,-24.791 -46.425,-74.191 -31.354,-120.695c15.071,-46.509 56.196,-77.609 96.117,-79.167c-18.617,-35.446 -12.317,-86.713 20.312,-123.05c32.633,-36.338 82.821,-47.979 119.917,-33.121c-2.625,-39.971 23.925,-84.237 68.475,-104.125c44.546,-19.887 95.116,-10.054 122.983,18.65Zm-4.692,4.554c1.567,1.613 3.85,2.309 6.05,1.842c2.2,-0.467 4.005,-2.029 4.78,-4.142c12.983,-35.329 52.816,-62.912 98.65,-62.912c45.833,-0 85.666,27.583 98.65,62.912c0.775,2.113 2.579,3.675 4.779,4.142c2.2,0.467 4.483,-0.229 6.05,-1.842c26.187,-26.975 73.758,-35.925 115.629,-17.233c41.879,18.696 67.079,60.15 64.608,97.725c-0.146,2.242 0.867,4.4 2.688,5.721c1.816,1.321 4.183,1.612 6.271,0.779c34.866,-13.962 81.954,-2.733 112.62,31.421c30.68,34.162 36.892,82.312 19.392,115.637c-1.046,1.988 -0.996,4.371 0.129,6.313c1.121,1.942 3.163,3.175 5.405,3.262c37.52,1.467 75.983,30.934 90.15,74.646c14.166,43.725 0.316,90.246 -29.188,113.55c-1.758,1.392 -2.683,3.588 -2.45,5.817c0.238,2.229 1.6,4.183 3.608,5.179c33.688,16.642 56.88,59.258 52.088,104.975c-4.792,45.717 -36.308,82.563 -72.708,91.821c-2.175,0.55 -3.913,2.179 -4.609,4.312c-0.691,2.134 -0.246,4.475 1.188,6.2c24.029,28.95 27.929,77.342 5.008,117.154c-22.917,39.805 -66.65,60.609 -103.65,54.221c-2.213,-0.383 -4.467,0.396 -5.971,2.063c-1.504,1.671 -2.046,3.991 -1.437,6.154c10.208,36.242 -5.85,82.042 -42.942,109.063c-37.075,27.012 -85.462,28.179 -116.671,7.254c-1.866,-1.255 -4.246,-1.459 -6.3,-0.546c-2.054,0.912 -3.496,2.816 -3.817,5.042c-5.375,37.266 -38.616,72.558 -83.454,82.112c-44.829,9.554 -89.508,-9.117 -109.529,-40.967c-1.2,-1.904 -3.287,-3.058 -5.537,-3.058c-2.25,0 -4.338,1.154 -5.538,3.058c-20.021,31.85 -64.7,50.521 -109.529,40.967c-44.838,-9.554 -78.079,-44.846 -83.454,-82.112c-0.321,-2.226 -1.763,-4.13 -3.817,-5.042c-2.054,-0.913 -4.433,-0.708 -6.3,0.546c-31.208,20.925 -79.596,19.758 -116.671,-7.255c-37.091,-27.02 -53.15,-72.82 -42.941,-109.062c0.608,-2.162 0.066,-4.483 -1.438,-6.154c-1.504,-1.667 -3.758,-2.446 -5.971,-2.063c-37,6.388 -80.733,-14.416 -103.65,-54.221c-22.921,-39.812 -19.021,-88.204 5.009,-117.154c1.433,-1.725 1.879,-4.066 1.187,-6.2c-0.696,-2.133 -2.433,-3.762 -4.608,-4.312c-36.4,-9.258 -67.917,-46.104 -72.709,-91.821c-4.791,-45.717 18.4,-88.333 52.088,-104.975c2.008,-0.996 3.371,-2.95 3.608,-5.179c0.234,-2.229 -0.691,-4.425 -2.45,-5.817c-29.504,-23.304 -43.354,-69.825 -29.187,-113.55c14.166,-43.712 52.629,-73.179 90.15,-74.646c2.241,-0.087 4.283,-1.32 5.404,-3.262c1.125,-1.942 1.175,-4.325 0.129,-6.313c-17.5,-33.325 -11.287,-81.475 19.392,-115.637c30.666,-34.154 77.754,-45.383 112.621,-31.421c2.087,0.833 4.454,0.542 6.27,-0.779c1.821,-1.321 2.834,-3.479 2.688,-5.721c-2.471,-37.575 22.729,-79.029 64.608,-97.725c41.871,-18.692 89.442,-9.742 115.629,17.233Z" style="fill:#fff;"/><text x="265.533px" y="865.321px" style="font-family:'GillSansMT-Bold', 'Gill Sans MT', sans-serif;font-weight:700;font-size:861.783px;fill:#f77e9d;">A</text></svg>