<?xml version="1.0" encoding="UTF-8" standalone="no"?>
<!DOCTYPE svg PUBLIC "-//W3C//DTD SVG 1.1//EN" "http://www.w3.org/Graphics/SVG/1.1/DTD/svg11.dtd">
<svg width="100%" height="100%" viewBox="0 0 5000 1414" version="1.1" xmlns="http://www.w3.org/2000/svg" xmlns:xlink="http://www.w3.org/1999/xlink" xml:space="preserve" xmlns:serif="http://www.serif.com/" style="fill-rule:evenodd;clip-rule:evenodd;stroke-linejoin:round;stroke-miterlimit:2;">
    <g transform="matrix(9.56332,0,0,9.56332,640.005,-297.982)">
        <g transform="matrix(74.0678,0,0,74.0678,71,131)">
            <path d="M0.293,-0.686L0.362,-0.686L0.667,-0L0.568,-0L0.477,-0.202L0.186,-0.202L0.1,-0L0,-0L0.293,-0.686ZM0.436,-0.289L0.326,-0.536L0.224,-0.289L0.436,-0.289Z" style="fill-rule:nonzero;"/>
        </g>
        <g transform="matrix(74.0678,0,0,74.0678,120.403,131)">
            <path d="M0.076,-0.001L0.076,-0.682L0.306,-0.682C0.399,-0.682 0.472,-0.668 0.526,-0.64C0.58,-0.613 0.623,-0.572 0.655,-0.518C0.687,-0.464 0.703,-0.405 0.703,-0.341C0.703,-0.295 0.694,-0.252 0.677,-0.21C0.659,-0.168 0.634,-0.132 0.602,-0.1C0.568,-0.068 0.53,-0.043 0.486,-0.026C0.46,-0.016 0.437,-0.01 0.415,-0.006C0.394,-0.003 0.353,-0.001 0.292,-0.001L0.076,-0.001ZM0.296,-0.595L0.174,-0.595L0.174,-0.088L0.299,-0.088C0.348,-0.088 0.386,-0.091 0.413,-0.098C0.44,-0.105 0.462,-0.113 0.48,-0.123C0.498,-0.134 0.515,-0.146 0.53,-0.161C0.578,-0.21 0.602,-0.272 0.602,-0.346C0.602,-0.419 0.577,-0.479 0.528,-0.525C0.51,-0.543 0.489,-0.557 0.465,-0.568C0.441,-0.579 0.419,-0.586 0.398,-0.59C0.377,-0.593 0.343,-0.595 0.296,-0.595Z" style="fill-rule:nonzero;"/>
        </g>
        <g transform="matrix(74.0678,0,0,74.0678,171.867,131)">
            <path d="M0.293,-0.686L0.362,-0.686L0.667,-0L0.568,-0L0.477,-0.202L0.186,-0.202L0.1,-0L0,-0L0.293,-0.686ZM0.436,-0.289L0.326,-0.536L0.224,-0.289L0.436,-0.289Z" style="fill-rule:nonzero;"/>
        </g>
        <g transform="matrix(74.0678,0,0,74.0678,221.269,131)">
            <path d="M0.618,-0.682L0.709,-0.682L0.709,-0L0.611,-0L0.611,-0.531L0.401,-0.267L0.383,-0.267L0.171,-0.531L0.171,-0L0.073,-0L0.073,-0.682L0.166,-0.682L0.392,-0.402L0.618,-0.682Z" style="fill-rule:nonzero;"/>
        </g>
    </g>
    <g transform="matrix(7.51447,0,0,7.51447,2773.6,-35.8086)">
        <g transform="matrix(94.2625,0,0,94.2625,71,131)">
            <path d="M0.076,-0.682L0.381,-0.682C0.447,-0.682 0.501,-0.663 0.542,-0.625C0.583,-0.587 0.604,-0.54 0.604,-0.486C0.604,-0.411 0.565,-0.355 0.487,-0.319C0.521,-0.304 0.554,-0.262 0.584,-0.193C0.615,-0.125 0.645,-0.061 0.674,-0L0.487,-0C0.476,-0.022 0.457,-0.065 0.429,-0.128C0.402,-0.192 0.378,-0.232 0.358,-0.25C0.338,-0.268 0.317,-0.277 0.295,-0.277L0.246,-0.277L0.246,-0L0.076,-0L0.076,-0.682ZM0.246,-0.557L0.246,-0.402L0.336,-0.402C0.365,-0.402 0.387,-0.409 0.404,-0.422C0.421,-0.436 0.429,-0.455 0.429,-0.48C0.429,-0.531 0.397,-0.557 0.332,-0.557L0.246,-0.557Z" style="fill:rgb(248,126,158);fill-rule:nonzero;"/>
        </g>
        <g transform="matrix(94.2625,0,0,94.2625,134.793,131)">
            <path d="M0.443,-0.429L0.662,-0.682L0.81,-0.682L0.81,-0L0.64,-0L0.64,-0.426L0.456,-0.212L0.43,-0.212L0.246,-0.426L0.246,-0L0.076,-0L0.076,-0.682L0.224,-0.682L0.443,-0.429Z" style="fill:rgb(248,126,158);fill-rule:nonzero;"/>
        </g>
        <g transform="matrix(94.2625,0,0,94.2625,218.193,131)">
            <path d="M0.539,-0.638L0.539,-0.505C0.449,-0.546 0.376,-0.566 0.323,-0.566C0.292,-0.566 0.268,-0.561 0.25,-0.551C0.232,-0.54 0.223,-0.527 0.223,-0.51C0.223,-0.497 0.229,-0.484 0.242,-0.473C0.255,-0.461 0.287,-0.446 0.337,-0.427C0.388,-0.409 0.428,-0.391 0.458,-0.375C0.489,-0.36 0.515,-0.337 0.537,-0.308C0.559,-0.279 0.57,-0.243 0.57,-0.198C0.57,-0.135 0.546,-0.085 0.498,-0.047C0.45,-0.01 0.387,0.009 0.308,0.009C0.223,0.009 0.141,-0.013 0.062,-0.057L0.062,-0.204C0.108,-0.174 0.148,-0.151 0.183,-0.137C0.218,-0.123 0.256,-0.116 0.295,-0.116C0.362,-0.116 0.395,-0.137 0.395,-0.179C0.395,-0.193 0.388,-0.207 0.375,-0.22C0.362,-0.232 0.329,-0.248 0.279,-0.266C0.228,-0.284 0.187,-0.301 0.157,-0.317C0.128,-0.332 0.102,-0.355 0.08,-0.384C0.059,-0.413 0.048,-0.45 0.048,-0.495C0.048,-0.554 0.071,-0.601 0.119,-0.637C0.166,-0.673 0.229,-0.691 0.308,-0.691C0.381,-0.691 0.458,-0.673 0.539,-0.638Z" style="fill:rgb(248,126,158);fill-rule:nonzero;"/>
        </g>
    </g>
    <g id="logo-small" serif:id="logo small" transform="matrix(0.156951,0,0,0.156951,648,712.324)">
        <g transform="matrix(1,0,0,1,-3568,-3568)">
            <g transform="matrix(0.802158,0,0,1.2722,591.993,-1146.25)">
                <path d="M2877.69,1237.53C2987.41,1049.29 3322.67,901 3710,901C4097.33,901 4432.59,1049.29 4542.31,1237.53C4763.65,1093.78 5165.32,1044.53 5519.16,1144.13C5873.01,1243.74 6083.89,1465.42 6063.02,1665.61C6357.7,1591.2 6756.33,1649.5 7015.51,1831.49C7274.69,2013.48 7324.72,2270.23 7176.87,2447.74C7493.94,2455.54 7820.61,2611.31 7940.3,2844.22C8059.99,3077.12 7940.53,3324.54 7691.27,3448.69C7975.9,3537.35 8174.12,3763.66 8133.63,4007.21C8093.15,4250.76 7824.84,4446.07 7517.27,4495.38C7720.26,4649.58 7755.75,4907.29 7562.08,5119.38C7368.41,5331.46 6997.66,5440.88 6684.96,5406.84C6771.2,5599.9 6637.83,5844.46 6324.47,5988.41C6011.11,6132.35 5602.02,6136.97 5338.25,6025.46C5292.83,6224.01 5013.66,6413.13 4634.79,6464.05C4255.92,6514.96 3879.22,6413.98 3710,6244.28C3540.78,6413.98 3164.08,6514.96 2785.21,6464.05C2406.34,6413.13 2127.17,6224.01 2081.75,6025.46C1817.98,6136.97 1408.89,6132.35 1095.53,5988.41C782.172,5844.46 648.804,5599.9 735.043,5406.84C422.337,5440.88 51.586,5331.46 -142.081,5119.38C-335.748,4907.29 -300.255,4649.58 -97.269,4495.38C-404.841,4446.07 -673.146,4250.76 -713.633,4007.21C-754.121,3763.66 -555.904,3537.35 -271.27,3448.69C-520.527,3324.54 -639.992,3077.12 -520.299,2844.22C-400.607,2611.31 -73.94,2455.54 243.127,2447.74C95.284,2270.23 145.315,2013.48 404.492,1831.49C663.668,1649.5 1062.3,1591.2 1356.98,1665.61C1336.11,1465.42 1546.99,1243.74 1900.84,1144.13C2254.68,1044.53 2656.36,1093.78 2877.69,1237.53Z" style="fill:none;"/>
                <clipPath id="_clip1">
                    <path d="M2877.69,1237.53C2987.41,1049.29 3322.67,901 3710,901C4097.33,901 4432.59,1049.29 4542.31,1237.53C4763.65,1093.78 5165.32,1044.53 5519.16,1144.13C5873.01,1243.74 6083.89,1465.42 6063.02,1665.61C6357.7,1591.2 6756.33,1649.5 7015.51,1831.49C7274.69,2013.48 7324.72,2270.23 7176.87,2447.74C7493.94,2455.54 7820.61,2611.31 7940.3,2844.22C8059.99,3077.12 7940.53,3324.54 7691.27,3448.69C7975.9,3537.35 8174.12,3763.66 8133.63,4007.21C8093.15,4250.76 7824.84,4446.07 7517.27,4495.38C7720.26,4649.58 7755.75,4907.29 7562.08,5119.38C7368.41,5331.46 6997.66,5440.88 6684.96,5406.84C6771.2,5599.9 6637.83,5844.46 6324.47,5988.41C6011.11,6132.35 5602.02,6136.97 5338.25,6025.46C5292.83,6224.01 5013.66,6413.13 4634.79,6464.05C4255.92,6514.96 3879.22,6413.98 3710,6244.28C3540.78,6413.98 3164.08,6514.96 2785.21,6464.05C2406.34,6413.13 2127.17,6224.01 2081.75,6025.46C1817.98,6136.97 1408.89,6132.35 1095.53,5988.41C782.172,5844.46 648.804,5599.9 735.043,5406.84C422.337,5440.88 51.586,5331.46 -142.081,5119.38C-335.748,4907.29 -300.255,4649.58 -97.269,4495.38C-404.841,4446.07 -673.146,4250.76 -713.633,4007.21C-754.121,3763.66 -555.904,3537.35 -271.27,3448.69C-520.527,3324.54 -639.992,3077.12 -520.299,2844.22C-400.607,2611.31 -73.94,2455.54 243.127,2447.74C95.284,2270.23 145.315,2013.48 404.492,1831.49C663.668,1649.5 1062.3,1591.2 1356.98,1665.61C1336.11,1465.42 1546.99,1243.74 1900.84,1144.13C2254.68,1044.53 2656.36,1093.78 2877.69,1237.53Z"/>
                </clipPath>
                <g clip-path="url(#_clip1)">
                    <g transform="matrix(1.24664,0,0,0.786039,-1143.16,604.27)">
                        <rect x="387" y="1489" width="578" height="407"/>
                    </g>
                    <g transform="matrix(1.24664,0,0,0.786039,-1095.16,-41.0674)">
                        <rect x="387" y="1489" width="578" height="407"/>
                    </g>
                    <g transform="matrix(1.24664,0,0,0.786039,-947.435,1058.99)">
                        <rect x="387" y="1489" width="578" height="407"/>
                    </g>
                    <g transform="matrix(1.24664,0,0,0.786039,671.323,1348.26)">
                        <rect x="387" y="1489" width="578" height="407"/>
                    </g>
                    <g transform="matrix(1.24664,0,0,0.786039,-764.179,1551.05)">
                        <rect x="387" y="1489" width="578" height="407"/>
                    </g>
                    <g transform="matrix(1.24664,0,0,0.786039,6111.02,1870.97)">
                        <rect x="387" y="1489" width="578" height="407"/>
                    </g>
                    <g transform="matrix(1.24664,0,0,0.786039,4972.22,1786.08)">
                        <rect x="387" y="1489" width="578" height="407"/>
                    </g>
                    <g transform="matrix(1.24664,0,0,0.786039,6733.09,2297.4)">
                        <rect x="387" y="1489" width="578" height="407"/>
                    </g>
                    <g transform="matrix(1.24664,0,0,0.786039,2015.2,1326.25)">
                        <rect x="387" y="1489" width="578" height="407"/>
                    </g>
                    <g transform="matrix(1.24664,0,0,0.786039,3552.92,2535.17)">
                        <rect x="387" y="1489" width="578" height="407"/>
                    </g>
                    <g transform="matrix(1.24664,0,0,0.786039,896.341,2231.37)">
                        <rect x="387" y="1489" width="578" height="407"/>
                    </g>
                    <g transform="matrix(1.24664,0,0,0.786039,1241.04,672.656)">
                        <rect x="387" y="1489" width="578" height="407"/>
                    </g>
                    <g transform="matrix(1.24664,0,0,0.786039,226.897,849.514)">
                        <rect x="387" y="1489" width="578" height="407"/>
                    </g>
                    <g transform="matrix(1.24664,0,0,0.786039,880.758,-409.72)">
                        <rect x="387" y="1489" width="578" height="407"/>
                    </g>
                    <g transform="matrix(5.61283e-17,0.57797,-0.916645,3.53904e-17,2095.59,539.769)">
                        <rect x="387" y="1489" width="578" height="407"/>
                    </g>
                    <g transform="matrix(1.24664,0,0,0.786039,3236.28,-135.785)">
                        <rect x="387" y="1489" width="578" height="407"/>
                    </g>
                    <g transform="matrix(1.24664,0,0,0.786039,3089.8,632.175)">
                        <rect x="387" y="1489" width="578" height="407"/>
                    </g>
                    <g transform="matrix(0.739786,0,0,0.635397,102.662,318.436)">
                        <rect x="387" y="1489" width="578" height="407"/>
                    </g>
                    <g transform="matrix(0.739786,0,0,0.635397,1187.24,244.549)">
                        <rect x="387" y="1489" width="578" height="407"/>
                    </g>
                    <g transform="matrix(0.739786,0,0,0.635397,653.676,638.354)">
                        <rect x="387" y="1489" width="578" height="407"/>
                    </g>
                    <g transform="matrix(0.739786,0,0,0.635397,2387.75,963.381)">
                        <rect x="387" y="1489" width="578" height="407"/>
                    </g>
                    <g transform="matrix(0.739786,0,0,0.635397,2076.09,5.19977)">
                        <rect x="387" y="1489" width="578" height="407"/>
                    </g>
                    <g transform="matrix(0.739786,0,0,0.635397,2815.34,5.19977)">
                        <rect x="387" y="1489" width="578" height="407"/>
                    </g>
                    <g transform="matrix(0.739786,0,0,0.635397,3441.16,-253.407)">
                        <rect x="387" y="1489" width="578" height="407"/>
                    </g>
                    <g transform="matrix(0.739786,0,0,0.635397,4240.87,1176.4)">
                        <rect x="387" y="1489" width="578" height="407"/>
                    </g>
                    <g transform="matrix(0.739786,0,0,0.635397,6239.86,2640.84)">
                        <rect x="387" y="1489" width="578" height="407"/>
                    </g>
                    <g transform="matrix(0.739786,0,0,0.635397,3441.16,487.042)">
                        <rect x="387" y="1489" width="578" height="407"/>
                    </g>
                    <g transform="matrix(0.739786,0,0,0.635397,3441.16,487.042)">
                        <rect x="387" y="1489" width="578" height="407"/>
                    </g>
                    <g transform="matrix(1.24664,0,0,0.786039,3089.8,632.175)">
                        <rect x="387" y="1489" width="578" height="407"/>
                    </g>
                    <g transform="matrix(1.24664,0,0,0.786039,3089.8,1050.74)">
                        <rect x="387" y="1489" width="578" height="407"/>
                    </g>
                    <g transform="matrix(1.24664,0,0,0.786039,1916.09,278.85)">
                        <rect x="387" y="1489" width="578" height="407"/>
                    </g>
                    <g transform="matrix(1.24664,0,0,0.786039,4184.35,444.312)">
                        <rect x="387" y="1489" width="578" height="407"/>
                    </g>
                    <g transform="matrix(1.24664,0,0,0.786039,6317.34,-201.026)">
                        <rect x="387" y="1489" width="578" height="407"/>
                    </g>
                    <g transform="matrix(1.24664,0,0,0.786039,4860.02,72.1222)">
                        <rect x="387" y="1489" width="578" height="407"/>
                    </g>
                    <g transform="matrix(1.24664,0,0,0.786039,5090.65,-432.515)">
                        <rect x="387" y="1489" width="578" height="407"/>
                    </g>
                    <g transform="matrix(1.24664,0,0,0.786039,5811.21,392.04)">
                        <rect x="387" y="1489" width="578" height="407"/>
                    </g>
                    <g transform="matrix(1.24664,0,0,0.786039,5878.52,3241.43)">
                        <rect x="387" y="1489" width="578" height="407"/>
                    </g>
                    <g transform="matrix(1.24664,0,0,0.786039,5032.68,2811.47)">
                        <rect x="387" y="1489" width="578" height="407"/>
                    </g>
                    <g transform="matrix(1.24664,0,0,0.786039,84.157,2632.25)">
                        <rect x="387" y="1489" width="578" height="407"/>
                    </g>
                    <g transform="matrix(1.24664,0,0,0.786039,3599.67,2952.17)">
                        <rect x="387" y="1489" width="578" height="407"/>
                    </g>
                    <g transform="matrix(0.739786,0,0,0.635397,4366.78,119.175)">
                        <rect x="387" y="1489" width="578" height="407"/>
                    </g>
                    <g transform="matrix(0.739786,0,0,0.635397,5202.65,1176.4)">
                        <rect x="387" y="1489" width="578" height="407"/>
                    </g>
                    <g transform="matrix(0.739786,0,0,0.635397,4740.77,1599.29)">
                        <rect x="387" y="1489" width="578" height="407"/>
                    </g>
                    <g transform="matrix(0.739786,0,0,0.635397,6085.9,1184.26)">
                        <rect x="387" y="1489" width="578" height="407"/>
                    </g>
                    <g transform="matrix(0.739786,0,0,0.635397,5647.08,1594.96)">
                        <rect x="387" y="1489" width="578" height="407"/>
                    </g>
                    <g transform="matrix(0.739786,0,0,0.635397,6367.64,1724.27)">
                        <rect x="387" y="1489" width="578" height="407"/>
                    </g>
                    <g transform="matrix(0.739786,0,0,0.635397,6367.64,1724.27)">
                        <rect x="387" y="1489" width="578" height="407"/>
                    </g>
                    <g transform="matrix(0.739786,0,0,0.635397,6874.39,1176.4)">
                        <rect x="387" y="1489" width="578" height="407"/>
                    </g>
                    <g transform="matrix(0.739786,0,0,0.635397,7020.87,729.927)">
                        <rect x="387" y="1489" width="578" height="407"/>
                    </g>
                    <g transform="matrix(0.739786,0,0,0.635397,1622.31,2129.08)">
                        <rect x="387" y="1489" width="578" height="407"/>
                    </g>
                    <g transform="matrix(1.24664,0,0,0.786039,159.578,4893.29)">
                        <rect x="387" y="1489" width="578" height="407"/>
                    </g>
                    <g transform="matrix(1.24664,0,0,0.786039,2292.57,4247.95)">
                        <rect x="387" y="1489" width="578" height="407"/>
                    </g>
                    <g transform="matrix(1.24664,0,0,0.786039,835.256,4521.1)">
                        <rect x="387" y="1489" width="578" height="407"/>
                    </g>
                    <g transform="matrix(1.24664,0,0,0.786039,1065.88,4016.46)">
                        <rect x="387" y="1489" width="578" height="407"/>
                    </g>
                    <g transform="matrix(1.24664,0,0,0.786039,1786.44,4841.02)">
                        <rect x="387" y="1489" width="578" height="407"/>
                    </g>
                    <g transform="matrix(0.739786,0,0,0.635397,355.73,4666.8)">
                        <rect x="387" y="1489" width="578" height="407"/>
                    </g>
                    <g transform="matrix(0.739786,0,0,0.635397,2571.63,2197.07)">
                        <rect x="387" y="1489" width="578" height="407"/>
                    </g>
                    <g transform="matrix(0.739786,0,0,0.635397,664.896,2129.08)">
                        <rect x="387" y="1489" width="578" height="407"/>
                    </g>
                    <g transform="matrix(0.739786,0,0,0.635397,-17.0147,2455.68)">
                        <rect x="387" y="1489" width="578" height="407"/>
                    </g>
                    <g transform="matrix(0.739786,0,0,0.635397,2122.21,2551.97)">
                        <rect x="387" y="1489" width="578" height="407"/>
                    </g>
                    <g transform="matrix(0.739786,0,0,0.635397,3534.65,1870.47)">
                        <rect x="387" y="1489" width="578" height="407"/>
                    </g>
                    <g transform="matrix(0.739786,0,0,0.635397,3028.52,2547.64)">
                        <rect x="387" y="1489" width="578" height="407"/>
                    </g>
                    <g transform="matrix(0.739786,0,0,0.635397,4918.42,2516.99)">
                        <rect x="387" y="1489" width="578" height="407"/>
                    </g>
                    <g transform="matrix(0.739786,0,0,0.635397,3535.28,2258.38)">
                        <rect x="387" y="1489" width="578" height="407"/>
                    </g>
                    <g transform="matrix(0.739786,0,0,0.635397,4255.83,2129.08)">
                        <rect x="387" y="1489" width="578" height="407"/>
                    </g>
                    <g transform="matrix(0.739786,0,0,0.635397,2996.11,5178.91)">
                        <rect x="387" y="1489" width="578" height="407"/>
                    </g>
                    <g transform="matrix(0.739786,0,0,0.635397,6300.32,3077.83)">
                        <rect x="387" y="1489" width="578" height="407"/>
                    </g>
                    <g transform="matrix(0.739786,0,0,0.635397,6952.31,4453.39)">
                        <rect x="387" y="1489" width="578" height="407"/>
                    </g>
                    <g transform="matrix(0.739786,0,0,0.635397,-61.2703,788.094)">
                        <rect x="387" y="1489" width="578" height="407"/>
                    </g>
                    <g transform="matrix(0.739786,0,0,0.635397,4660.99,3527.05)">
                        <rect x="387" y="1489" width="578" height="407"/>
                    </g>
                    <g transform="matrix(0.739786,0,0,0.635397,4572.48,2899.44)">
                        <rect x="387" y="1489" width="578" height="407"/>
                    </g>
                    <g transform="matrix(0.739786,0,0,0.635397,226.079,1473.91)">
                        <rect x="387" y="1489" width="578" height="407"/>
                    </g>
                    <g transform="matrix(0.739786,0,0,0.635397,2999.22,3139.14)">
                        <rect x="387" y="1489" width="578" height="407"/>
                    </g>
                    <g transform="matrix(0.739786,0,0,0.635397,2357.83,2979.18)">
                        <rect x="387" y="1489" width="578" height="407"/>
                    </g>
                    <g transform="matrix(0.739786,0,0,0.635397,128.218,3397.74)">
                        <rect x="387" y="1489" width="578" height="407"/>
                    </g>
                    <g transform="matrix(0.739786,0,0,0.635397,-619.14,2770.14)">
                        <rect x="387" y="1489" width="578" height="407"/>
                    </g>
                    <g transform="matrix(1.24664,0,0,0.786039,6549.22,4679.1)">
                        <rect x="387" y="1489" width="578" height="407"/>
                    </g>
                    <g transform="matrix(1.24664,0,0,0.786039,6756.16,3663.14)">
                        <rect x="387" y="1489" width="578" height="407"/>
                    </g>
                    <g transform="matrix(1.24664,0,0,0.786039,6756.16,2971.43)">
                        <rect x="387" y="1489" width="578" height="407"/>
                    </g>
                    <g transform="matrix(1.24664,0,0,0.786039,-25.5471,3921.75)">
                        <rect x="387" y="1489" width="578" height="407"/>
                    </g>
                    <g transform="matrix(1.24664,0,0,0.786039,-560.978,5225.78)">
                        <rect x="387" y="1489" width="578" height="407"/>
                    </g>
                    <g transform="matrix(1.24664,0,0,0.786039,-1090.8,4828.44)">
                        <rect x="387" y="1489" width="578" height="407"/>
                    </g>
                    <g transform="matrix(1.24664,0,0,0.786039,1065.88,4016.46)">
                        <rect x="387" y="1489" width="578" height="407"/>
                    </g>
                    <g transform="matrix(0.739786,0,0,0.635397,1408.51,5450.09)">
                        <rect x="387" y="1489" width="578" height="407"/>
                    </g>
                    <g transform="matrix(1.24664,0,0,0.786039,-730.52,4282.54)">
                        <rect x="387" y="1489" width="578" height="407"/>
                    </g>
                    <g transform="matrix(1.24664,0,0,0.786039,573.462,3432.04)">
                        <rect x="387" y="1489" width="578" height="407"/>
                    </g>
                    <g transform="matrix(1.24664,0,0,0.786039,1188.05,2853.52)">
                        <rect x="387" y="1489" width="578" height="407"/>
                    </g>
                    <g transform="matrix(1.24664,0,0,0.786039,-948.682,3743.36)">
                        <rect x="387" y="1489" width="578" height="407"/>
                    </g>
                    <g transform="matrix(1.24664,0,0,0.786039,2649.74,3344.4)">
                        <rect x="387" y="1489" width="578" height="407"/>
                    </g>
                    <g transform="matrix(0.739786,0,0,0.635397,6312.78,4207.36)">
                        <rect x="387" y="1489" width="578" height="407"/>
                    </g>
                    <g transform="matrix(0.739786,0,0,0.635397,4673.46,4656.58)">
                        <rect x="387" y="1489" width="578" height="407"/>
                    </g>
                    <g transform="matrix(0.739786,0,0,0.635397,4584.94,4028.98)">
                        <rect x="387" y="1489" width="578" height="407"/>
                    </g>
                    <g transform="matrix(0.739786,0,0,0.635397,1977.6,3630.02)">
                        <rect x="387" y="1489" width="578" height="407"/>
                    </g>
                    <g transform="matrix(0.739786,0,0,0.635397,2405.2,4028.98)">
                        <rect x="387" y="1489" width="578" height="407"/>
                    </g>
                    <g transform="matrix(0.739786,0,0,0.635397,-752.53,3470.06)">
                        <rect x="387" y="1489" width="578" height="407"/>
                    </g>
                    <g transform="matrix(0.739786,0,0,0.635397,-707.652,2255.24)">
                        <rect x="387" y="1489" width="578" height="407"/>
                    </g>
                    <g transform="matrix(1.24664,0,0,0.786039,3427.01,3704.01)">
                        <rect x="387" y="1489" width="578" height="407"/>
                    </g>
                    <g transform="matrix(1.24664,0,0,0.786039,5045.77,3993.28)">
                        <rect x="387" y="1489" width="578" height="407"/>
                    </g>
                    <g transform="matrix(1.24664,0,0,0.786039,3610.27,4196.07)">
                        <rect x="387" y="1489" width="578" height="407"/>
                    </g>
                    <g transform="matrix(1.24664,0,0,0.786039,5270.79,4876.39)">
                        <rect x="387" y="1489" width="578" height="407"/>
                    </g>
                    <g transform="matrix(1.24664,0,0,0.786039,4494.76,5225.78)">
                        <rect x="387" y="1489" width="578" height="407"/>
                    </g>
                    <g transform="matrix(0.739786,0,0,0.635397,5996.76,4774.1)">
                        <rect x="387" y="1489" width="578" height="407"/>
                    </g>
                    <g transform="matrix(0.739786,0,0,0.635397,6524.71,5450.09)">
                        <rect x="387" y="1489" width="578" height="407"/>
                    </g>
                    <g transform="matrix(0.739786,0,0,0.635397,4357.43,5100.7)">
                        <rect x="387" y="1489" width="578" height="407"/>
                    </g>
                    <g transform="matrix(0.739786,0,0,0.635397,5375.31,3788.8)">
                        <rect x="387" y="1489" width="578" height="407"/>
                    </g>
                    <g transform="matrix(0.739786,0,0,0.635397,3755.31,5415.16)">
                        <rect x="387" y="1489" width="578" height="407"/>
                    </g>
                    <g transform="matrix(0.739786,0,0,0.635397,3666.8,4900.26)">
                        <rect x="387" y="1489" width="578" height="407"/>
                    </g>
                </g>
                <path d="M2877.69,1237.53C2987.41,1049.29 3322.67,901 3710,901C4097.33,901 4432.59,1049.29 4542.31,1237.53C4763.65,1093.78 5165.32,1044.53 5519.16,1144.13C5873.01,1243.74 6083.89,1465.42 6063.02,1665.61C6357.7,1591.2 6756.33,1649.5 7015.51,1831.49C7274.69,2013.48 7324.72,2270.23 7176.87,2447.74C7493.94,2455.54 7820.61,2611.31 7940.3,2844.22C8059.99,3077.12 7940.53,3324.54 7691.27,3448.69C7975.9,3537.35 8174.12,3763.66 8133.63,4007.21C8093.15,4250.76 7824.84,4446.07 7517.27,4495.38C7720.26,4649.58 7755.75,4907.29 7562.08,5119.38C7368.41,5331.46 6997.66,5440.88 6684.96,5406.84C6771.2,5599.9 6637.83,5844.46 6324.47,5988.41C6011.11,6132.35 5602.02,6136.97 5338.25,6025.46C5292.83,6224.01 5013.66,6413.13 4634.79,6464.05C4255.92,6514.96 3879.22,6413.98 3710,6244.28C3540.78,6413.98 3164.08,6514.96 2785.21,6464.05C2406.34,6413.13 2127.17,6224.01 2081.75,6025.46C1817.98,6136.97 1408.89,6132.35 1095.53,5988.41C782.172,5844.46 648.804,5599.9 735.043,5406.84C422.337,5440.88 51.586,5331.46 -142.081,5119.38C-335.748,4907.29 -300.255,4649.58 -97.269,4495.38C-404.841,4446.07 -673.146,4250.76 -713.633,4007.21C-754.121,3763.66 -555.904,3537.35 -271.27,3448.69C-520.527,3324.54 -639.992,3077.12 -520.299,2844.22C-400.607,2611.31 -73.94,2455.54 243.127,2447.74C95.284,2270.23 145.315,2013.48 404.492,1831.49C663.668,1649.5 1062.3,1591.2 1356.98,1665.61C1336.11,1465.42 1546.99,1243.74 1900.84,1144.13C2254.68,1044.53 2656.36,1093.78 2877.69,1237.53ZM2840.42,1260.35C2852.86,1268.43 2871.01,1271.91 2888.47,1269.57C2905.94,1267.23 2920.28,1259.4 2926.44,1248.83C3029.57,1071.9 3345.94,933.752 3710,933.752C4074.06,933.752 4390.43,1071.9 4493.56,1248.83C4499.72,1259.4 4514.06,1267.23 4531.53,1269.57C4548.99,1271.91 4567.14,1268.43 4579.58,1260.35C4787.59,1125.25 5165.44,1080.43 5497.99,1174.04C5830.63,1267.68 6030.81,1475.27 6011.19,1663.46C6010.02,1674.69 6018.07,1685.51 6032.51,1692.12C6046.96,1698.72 6065.77,1700.19 6082.33,1696.01C6359.28,1626.08 6733.28,1682.33 6976.86,1853.37C7220.53,2024.47 7269.88,2265.62 7130.89,2432.51C7122.6,2442.46 7122.98,2454.4 7131.9,2464.13C7140.82,2473.86 7157.03,2480.03 7174.85,2480.46C7472.87,2487.8 7778.38,2635.39 7890.89,2854.31C8003.41,3073.28 7893.41,3306.27 7659.07,3422.99C7645.09,3429.95 7637.75,3440.94 7639.61,3452.11C7641.48,3463.28 7652.29,3473.07 7668.26,3478.05C7935.85,3561.41 8120.03,3774.83 8081.97,4003.8C8043.91,4232.74 7793.6,4417.28 7504.47,4463.64C7487.2,4466.41 7473.39,4474.56 7467.87,4485.25C7462.36,4495.93 7465.92,4507.65 7477.3,4516.3C7668.14,4661.27 7699.15,4903.64 7517.07,5103.03C7335.04,5302.36 6987.7,5406.56 6693.8,5374.56C6676.22,5372.65 6658.32,5376.55 6646.38,5384.91C6634.44,5393.26 6630.12,5404.89 6634.96,5415.72C6716.03,5597.22 6588.48,5826.61 6293.88,5961.94C5999.39,6097.22 5615.07,6103.06 5367.18,5998.25C5352.35,5991.98 5333.45,5990.96 5317.14,5995.53C5300.83,6000.1 5289.39,6009.64 5286.84,6020.78C5244.14,6207.42 4980.1,6384.15 4623.96,6432.01C4267.88,6479.87 3913.02,6386.34 3753.97,6226.84C3744.47,6217.31 3727.86,6211.52 3710,6211.52C3692.14,6211.52 3675.53,6217.31 3666.03,6226.84C3506.98,6386.34 3152.12,6479.87 2796.04,6432.01C2439.9,6384.15 2175.86,6207.42 2133.16,6020.78C2130.61,6009.64 2119.17,6000.1 2102.86,5995.53C2086.55,5990.96 2067.65,5991.98 2052.82,5998.25C1804.93,6103.06 1420.61,6097.22 1126.12,5961.94C831.516,5826.61 703.965,5597.22 785.041,5415.72C789.876,5404.89 785.565,5393.26 773.624,5384.91C761.682,5376.55 743.779,5372.65 726.205,5374.56C432.3,5406.56 84.957,5302.36 -97.066,5103.03C-279.148,4903.64 -248.144,4661.27 -57.301,4516.3C-45.92,4507.65 -42.362,4495.93 -47.874,4485.25C-53.386,4474.56 -67.199,4466.41 -84.468,4463.64C-373.595,4417.28 -623.914,4232.74 -661.973,4003.8C-700.035,3774.83 -515.848,3561.41 -248.262,3478.05C-232.29,3473.07 -221.476,3463.28 -219.612,3452.11C-217.748,3440.94 -225.093,3429.95 -239.073,3422.99C-473.413,3306.27 -583.415,3073.28 -470.886,2854.31C-358.381,2635.39 -52.874,2487.8 245.154,2480.46C262.966,2480.03 279.177,2473.86 288.098,2464.13C297.019,2454.4 297.403,2442.46 289.115,2432.51C150.117,2265.62 199.469,2024.47 443.14,1853.37C686.721,1682.33 1060.72,1626.08 1337.67,1696.01C1354.23,1700.19 1373.04,1698.72 1387.49,1692.12C1401.93,1685.51 1409.98,1674.69 1408.81,1663.46C1389.19,1475.27 1589.37,1267.68 1922.01,1174.04C2254.56,1080.43 2632.41,1125.25 2840.42,1260.35Z"/>
            </g>
            <g transform="matrix(0.903726,0,0,0.903726,278.143,156.479)">
                <g transform="matrix(6075.71,0,0,6075.71,1267,5588)">
                    <path d="M0.475,-0.682L0.778,-0L0.596,-0L0.539,-0.135L0.234,-0.135L0.183,-0L0.003,-0L0.278,-0.682L0.475,-0.682ZM0.49,-0.254L0.379,-0.519L0.279,-0.254L0.49,-0.254Z" style="fill:rgb(247,126,157);fill-rule:nonzero;"/>
                </g>
            </g>
        </g>
    </g>
</svg>
